<svg version="1.1" xmlns="http://www.w3.org/2000/svg" viewBox="0 0 558.984375 346" width="558.984375" height="346" filter="invert(93%) hue-rotate(180deg)">
  <!-- svg-source:excalidraw -->
  
  <defs>
    <style class="style-fonts">
      @font-face {
        font-family: "Virgil";
        src: url("https://excalidraw.com/Virgil.woff2");
      }
      @font-face {
        font-family: "Cascadia";
        src: url("https://excalidraw.com/Cascadia.woff2");
      }
      @font-face {
        font-family: "Assistant";
        src: url("https://excalidraw.com/Assistant-Regular.woff2");
      }
    </style>
    
  </defs>
  <rect x="0" y="0" width="558.984375" height="346" fill="#ffffff"></rect><g stroke-linecap="round" transform="translate(235.26953125 10) rotate(0 39.4609375 22)"><path d="M11 0 C25.61 0, 40.22 0, 67.92 0 M11 0 C23.65 0, 36.29 0, 67.92 0 M67.92 0 C75.26 0, 78.92 3.67, 78.92 11 M67.92 0 C75.26 0, 78.92 3.67, 78.92 11 M78.92 11 C78.92 16.7, 78.92 22.39, 78.92 33 M78.92 11 C78.92 18.74, 78.92 26.49, 78.92 33 M78.92 33 C78.92 40.33, 75.26 44, 67.92 44 M78.92 33 C78.92 40.33, 75.26 44, 67.92 44 M67.92 44 C54.56 44, 41.19 44, 11 44 M67.92 44 C55.7 44, 43.49 44, 11 44 M11 44 C3.67 44, 0 40.33, 0 33 M11 44 C3.67 44, 0 40.33, 0 33 M0 33 C0 27.07, 0 21.15, 0 11 M0 33 C0 27.87, 0 22.74, 0 11 M0 11 C0 3.67, 3.67 0, 11 0 M0 11 C0 3.67, 3.67 0, 11 0" stroke="#1e1e1e" stroke-width="2" fill="none"></path></g><g transform="translate(249.1640625 20.5) rotate(0 25.56640625 11.5)"><text x="25.56640625" y="18.400390625" font-family="Helvetica, Segoe UI Emoji" font-size="20px" fill="#1e1e1e" text-anchor="middle" style="white-space: pre;" direction="ltr" dominant-baseline="alphabetic">Client</text></g><g stroke-linecap="round" transform="translate(235.26953125 104) rotate(0 39.4609375 22)"><path d="M11 0 C33.53 0, 56.06 0, 67.92 0 M11 0 C33.41 0, 55.83 0, 67.92 0 M67.92 0 C75.26 0, 78.92 3.67, 78.92 11 M67.92 0 C75.26 0, 78.92 3.67, 78.92 11 M78.92 11 C78.92 18.56, 78.92 26.11, 78.92 33 M78.92 11 C78.92 16.75, 78.92 22.5, 78.92 33 M78.92 33 C78.92 40.33, 75.26 44, 67.92 44 M78.92 33 C78.92 40.33, 75.26 44, 67.92 44 M67.92 44 C46 44, 24.08 44, 11 44 M67.92 44 C49.61 44, 31.3 44, 11 44 M11 44 C3.67 44, 0 40.33, 0 33 M11 44 C3.67 44, 0 40.33, 0 33 M0 33 C0 24.65, 0 16.31, 0 11 M0 33 C0 27.08, 0 21.15, 0 11 M0 11 C0 3.67, 3.67 0, 11 0 M0 11 C0 3.67, 3.67 0, 11 0" stroke="#1e1e1e" stroke-width="2" fill="none"></path></g><g transform="translate(249.1640625 114.5) rotate(0 25.56640625 11.5)"><text x="25.56640625" y="18.400390625" font-family="Helvetica, Segoe UI Emoji" font-size="20px" fill="#1e1e1e" text-anchor="middle" style="white-space: pre;" direction="ltr" dominant-baseline="alphabetic">Nginx</text></g><g stroke-linecap="round" transform="translate(10 198) rotate(0 69.796875 22)"><path d="M11 0 C45.8 0, 80.61 0, 128.59 0 M11 0 C48.56 0, 86.13 0, 128.59 0 M128.59 0 C135.93 0, 139.59 3.67, 139.59 11 M128.59 0 C135.93 0, 139.59 3.67, 139.59 11 M139.59 11 C139.59 19.7, 139.59 28.4, 139.59 33 M139.59 11 C139.59 16, 139.59 21.01, 139.59 33 M139.59 33 C139.59 40.33, 135.93 44, 128.59 44 M139.59 33 C139.59 40.33, 135.93 44, 128.59 44 M128.59 44 C88.27 44, 47.95 44, 11 44 M128.59 44 C94.45 44, 60.3 44, 11 44 M11 44 C3.67 44, 0 40.33, 0 33 M11 44 C3.67 44, 0 40.33, 0 33 M0 33 C0 28.35, 0 23.71, 0 11 M0 33 C0 24.56, 0 16.12, 0 11 M0 11 C0 3.67, 3.67 0, 11 0 M0 11 C0 3.67, 3.67 0, 11 0" stroke="#1e1e1e" stroke-width="2" fill="none"></path></g><g transform="translate(29.962890625 208.5) rotate(0 49.833984375 11.5)"><text x="49.833984375" y="18.400390625" font-family="Helvetica, Segoe UI Emoji" font-size="20px" fill="#1e1e1e" text-anchor="middle" style="white-space: pre;" direction="ltr" dominant-baseline="alphabetic">WebServer</text></g><g stroke-linecap="round" transform="translate(10.4765625 292) rotate(0 69.3203125 22)"><path d="M11 0 C41.73 0, 72.46 0, 127.64 0 M11 0 C49.08 0, 87.16 0, 127.64 0 M127.64 0 C134.97 0, 138.64 3.67, 138.64 11 M127.64 0 C134.97 0, 138.64 3.67, 138.64 11 M138.64 11 C138.64 18.92, 138.64 26.83, 138.64 33 M138.64 11 C138.64 18.63, 138.64 26.26, 138.64 33 M138.64 33 C138.64 40.33, 134.97 44, 127.64 44 M138.64 33 C138.64 40.33, 134.97 44, 127.64 44 M127.64 44 C102.73 44, 77.82 44, 11 44 M127.64 44 C90.92 44, 54.21 44, 11 44 M11 44 C3.67 44, 0 40.33, 0 33 M11 44 C3.67 44, 0 40.33, 0 33 M0 33 C0 27.44, 0 21.88, 0 11 M0 33 C0 26.49, 0 19.98, 0 11 M0 11 C0 3.67, 3.67 0, 11 0 M0 11 C0 3.67, 3.67 0, 11 0" stroke="#1e1e1e" stroke-width="2" fill="none"></path></g><g transform="translate(30.34375 302.5) rotate(0 49.453125 11.5)"><text x="49.453125" y="18.400390625" font-family="Helvetica, Segoe UI Emoji" font-size="20px" fill="#1e1e1e" text-anchor="middle" style="white-space: pre;" direction="ltr" dominant-baseline="alphabetic">Static-Files</text></g><g stroke-linecap="round" transform="translate(292.3046875 198) rotate(0 84.6484375 22)"><path d="M11 0 C60.03 0, 109.05 0, 158.3 0 M11 0 C45.96 0, 80.92 0, 158.3 0 M158.3 0 C165.63 0, 169.3 3.67, 169.3 11 M158.3 0 C165.63 0, 169.3 3.67, 169.3 11 M169.3 11 C169.3 17.06, 169.3 23.11, 169.3 33 M169.3 11 C169.3 19.71, 169.3 28.42, 169.3 33 M169.3 33 C169.3 40.33, 165.63 44, 158.3 44 M169.3 33 C169.3 40.33, 165.63 44, 158.3 44 M158.3 44 C119.71 44, 81.12 44, 11 44 M158.3 44 C106.35 44, 54.4 44, 11 44 M11 44 C3.67 44, 0 40.33, 0 33 M11 44 C3.67 44, 0 40.33, 0 33 M0 33 C0 26.03, 0 19.07, 0 11 M0 33 C0 26.98, 0 20.97, 0 11 M0 11 C0 3.67, 3.67 0, 11 0 M0 11 C0 3.67, 3.67 0, 11 0" stroke="#1e1e1e" stroke-width="2" fill="none"></path></g><g transform="translate(315.2392578125 208.5) rotate(0 61.7138671875 11.5)"><text x="61.7138671875" y="18.400390625" font-family="Helvetica, Segoe UI Emoji" font-size="20px" fill="#1e1e1e" text-anchor="middle" style="white-space: pre;" direction="ltr" dominant-baseline="alphabetic">LoadBalancer</text></g><g stroke-linecap="round" transform="translate(204.921875 292) rotate(0 73.515625 22)"><path d="M11 0 C56.49 0, 101.98 0, 136.03 0 M11 0 C51.38 0, 91.77 0, 136.03 0 M136.03 0 C143.36 0, 147.03 3.67, 147.03 11 M136.03 0 C143.36 0, 147.03 3.67, 147.03 11 M147.03 11 C147.03 16.97, 147.03 22.94, 147.03 33 M147.03 11 C147.03 17.23, 147.03 23.45, 147.03 33 M147.03 33 C147.03 40.33, 143.36 44, 136.03 44 M147.03 33 C147.03 40.33, 143.36 44, 136.03 44 M136.03 44 C109.86 44, 83.69 44, 11 44 M136.03 44 C101.14 44, 66.26 44, 11 44 M11 44 C3.67 44, 0 40.33, 0 33 M11 44 C3.67 44, 0 40.33, 0 33 M0 33 C0 25.57, 0 18.14, 0 11 M0 33 C0 24.51, 0 16.03, 0 11 M0 11 C0 3.67, 3.67 0, 11 0 M0 11 C0 3.67, 3.67 0, 11 0" stroke="#1e1e1e" stroke-width="2" fill="none"></path></g><g transform="translate(225.6298828125 302.5) rotate(0 52.8076171875 11.5)"><text x="52.8076171875" y="18.400390625" font-family="Helvetica, Segoe UI Emoji" font-size="20px" fill="#1e1e1e" text-anchor="middle" style="white-space: pre;" direction="ltr" dominant-baseline="alphabetic">AppServer1</text></g><g stroke-linecap="round" transform="translate(401.953125 292) rotate(0 73.515625 22)"><path d="M11 0 C40.76 0, 70.52 0, 136.03 0 M11 0 C55.47 0, 99.93 0, 136.03 0 M136.03 0 C143.36 0, 147.03 3.67, 147.03 11 M136.03 0 C143.36 0, 147.03 3.67, 147.03 11 M147.03 11 C147.03 16.83, 147.03 22.66, 147.03 33 M147.03 11 C147.03 15.47, 147.03 19.94, 147.03 33 M147.03 33 C147.03 40.33, 143.36 44, 136.03 44 M147.03 33 C147.03 40.33, 143.36 44, 136.03 44 M136.03 44 C107.28 44, 78.52 44, 11 44 M136.03 44 C93.64 44, 51.25 44, 11 44 M11 44 C3.67 44, 0 40.33, 0 33 M11 44 C3.67 44, 0 40.33, 0 33 M0 33 C0 27.07, 0 21.13, 0 11 M0 33 C0 27.36, 0 21.72, 0 11 M0 11 C0 3.67, 3.67 0, 11 0 M0 11 C0 3.67, 3.67 0, 11 0" stroke="#1e1e1e" stroke-width="2" fill="none"></path></g><g transform="translate(422.6611328125 302.5) rotate(0 52.8076171875 11.5)"><text x="52.8076171875" y="18.400390625" font-family="Helvetica, Segoe UI Emoji" font-size="20px" fill="#1e1e1e" text-anchor="middle" style="white-space: pre;" direction="ltr" dominant-baseline="alphabetic">AppServer2</text></g><g stroke-linecap="round"><g transform="translate(274.73 54.5) rotate(0 0 21.850000000000023)"><path d="M0 0 C0 7.28, 0 36.42, 0 43.7 M0 0 C0 7.28, 0 36.42, 0 43.7" stroke="#1e1e1e" stroke-width="2" fill="none"></path></g><g transform="translate(274.73 54.5) rotate(0 0 21.850000000000023)"><path d="M-7.47 23.17 C-4.81 30.48, -2.15 37.78, 0 43.7 M-7.47 23.17 C-4.77 30.61, -2.06 38.04, 0 43.7" stroke="#1e1e1e" stroke-width="2" fill="none"></path></g><g transform="translate(274.73 54.5) rotate(0 0 21.850000000000023)"><path d="M7.47 23.17 C4.81 30.48, 2.15 37.78, 0 43.7 M7.47 23.17 C4.77 30.61, 2.06 38.04, 0 43.7" stroke="#1e1e1e" stroke-width="2" fill="none"></path></g></g><mask></mask><g stroke-linecap="round"><g transform="translate(235.26999999999998 136.014) rotate(0 -77.73649999999998 28.093000000000018)"><path d="M0 0 C-25.91 6.16, -129.56 27.62, -155.47 36.99 C-181.39 46.35, -155.47 52.99, -155.47 56.19 M0 0 C-25.91 6.16, -129.56 27.62, -155.47 36.99 C-181.39 46.35, -155.47 52.99, -155.47 56.19" stroke="#1e1e1e" stroke-width="2" fill="none"></path></g><g transform="translate(235.26999999999998 136.014) rotate(0 -77.73649999999998 28.093000000000018)"><path d="M-164.62 53.26 C-162.48 53.95, -160.34 54.63, -155.47 56.19 M-164.62 53.26 C-162.08 54.07, -159.54 54.89, -155.47 56.19" stroke="#1e1e1e" stroke-width="2" fill="none"></path></g><g transform="translate(235.26999999999998 136.014) rotate(0 -77.73649999999998 28.093000000000018)"><path d="M-160.6 48.07 C-159.4 49.97, -158.2 51.86, -155.47 56.19 M-160.6 48.07 C-159.18 50.32, -157.75 52.57, -155.47 56.19" stroke="#1e1e1e" stroke-width="2" fill="none"></path></g></g><mask></mask><g stroke-linecap="round"><g transform="translate(79.79700000000003 242.5) rotate(0 0 21.850000000000023)"><path d="M0 0 C0 7.28, 0 36.42, 0 43.7 M0 0 C0 7.28, 0 36.42, 0 43.7" stroke="#1e1e1e" stroke-width="2" fill="none"></path></g><g transform="translate(79.79700000000003 242.5) rotate(0 0 21.850000000000023)"><path d="M-7.47 23.17 C-5.98 27.28, -4.48 31.39, 0 43.7 M-7.47 23.17 C-5.26 29.26, -3.04 35.35, 0 43.7" stroke="#1e1e1e" stroke-width="2" fill="none"></path></g><g transform="translate(79.79700000000003 242.5) rotate(0 0 21.850000000000023)"><path d="M7.47 23.17 C5.98 27.28, 4.48 31.39, 0 43.7 M7.47 23.17 C5.26 29.26, 3.04 35.35, 0 43.7" stroke="#1e1e1e" stroke-width="2" fill="none"></path></g></g><mask></mask><g stroke-linecap="round"><g transform="translate(314.19100000000003 144.64300000000003) rotate(0 31.380999999999972 23.778500000000008)"><path d="M0 0 C10.46 4.73, 52.3 20.43, 62.76 28.36 C73.22 36.28, 62.76 44.36, 62.76 47.56 M0 0 C10.46 4.73, 52.3 20.43, 62.76 28.36 C73.22 36.28, 62.76 44.36, 62.76 47.56" stroke="#1e1e1e" stroke-width="2" fill="none"></path></g><g transform="translate(314.19100000000003 144.64300000000003) rotate(0 31.380999999999972 23.778500000000008)"><path d="M63.76 38.01 C63.37 41.77, 62.97 45.53, 62.76 47.56 M63.76 38.01 C63.43 41.15, 63.1 44.3, 62.76 47.56" stroke="#1e1e1e" stroke-width="2" fill="none"></path></g><g transform="translate(314.19100000000003 144.64300000000003) rotate(0 31.380999999999972 23.778500000000008)"><path d="M69.66 40.88 C66.95 43.51, 64.23 46.14, 62.76 47.56 M69.66 40.88 C67.39 43.08, 65.12 45.28, 62.76 47.56" stroke="#1e1e1e" stroke-width="2" fill="none"></path></g></g><mask></mask><g stroke-linecap="round"><g transform="translate(330.83899999999994 242.5) rotate(0 -26.200500000000034 21.850000000000023)"><path d="M0 0 C-8.73 4.08, -43.67 17.22, -52.4 24.5 C-61.13 31.78, -52.4 40.5, -52.4 43.7 M0 0 C-8.73 4.08, -43.67 17.22, -52.4 24.5 C-61.13 31.78, -52.4 40.5, -52.4 43.7" stroke="#1e1e1e" stroke-width="2" fill="none"></path></g><g transform="translate(330.83899999999994 242.5) rotate(0 -26.200500000000034 21.850000000000023)"><path d="M-58.77 36.51 C-57.12 38.37, -55.47 40.23, -52.4 43.7 M-58.77 36.51 C-56.53 39.04, -54.29 41.57, -52.4 43.7" stroke="#1e1e1e" stroke-width="2" fill="none"></path></g><g transform="translate(330.83899999999994 242.5) rotate(0 -26.200500000000034 21.850000000000023)"><path d="M-52.66 34.1 C-52.59 36.59, -52.53 39.07, -52.4 43.7 M-52.66 34.1 C-52.57 37.48, -52.48 40.86, -52.4 43.7" stroke="#1e1e1e" stroke-width="2" fill="none"></path></g></g><mask></mask><g stroke-linecap="round"><g transform="translate(423.067 242.5) rotate(0 26.201000000000022 21.850000000000023)"><path d="M0 0 C8.73 4.08, 43.67 17.22, 52.4 24.5 C61.14 31.78, 52.4 40.5, 52.4 43.7 M0 0 C8.73 4.08, 43.67 17.22, 52.4 24.5 C61.14 31.78, 52.4 40.5, 52.4 43.7" stroke="#1e1e1e" stroke-width="2" fill="none"></path></g><g transform="translate(423.067 242.5) rotate(0 26.201000000000022 21.850000000000023)"><path d="M52.66 34.1 C52.57 37.4, 52.48 40.7, 52.4 43.7 M52.66 34.1 C52.59 36.61, 52.53 39.12, 52.4 43.7" stroke="#1e1e1e" stroke-width="2" fill="none"></path></g><g transform="translate(423.067 242.5) rotate(0 26.201000000000022 21.850000000000023)"><path d="M58.77 36.51 C56.58 38.98, 54.39 41.45, 52.4 43.7 M58.77 36.51 C57.1 38.39, 55.44 40.27, 52.4 43.7" stroke="#1e1e1e" stroke-width="2" fill="none"></path></g></g><mask></mask></svg>